<svg width="154" height="199" viewBox="0 0 154 199" fill="none" xmlns="http://www.w3.org/2000/svg">
<path d="M41.9109 21.6026C59.5402 26.1612 71.7968 40.975 73.9367 57.9968C78.795 56.8154 84.0074 56.781 89.1873 58.1204C105.965 62.459 116.052 79.57 111.716 96.3377C111.706 96.3768 111.695 96.4158 111.685 96.4547L117.071 97.8475C117.817 97.9589 118.564 98.1085 119.31 98.3014C130.845 101.284 137.78 113.048 134.799 124.576C134.794 124.595 134.788 124.614 134.783 124.634C134.778 124.653 134.774 124.673 134.769 124.692C131.788 136.221 120.021 143.148 108.486 140.166C107.739 139.973 107.013 139.741 106.307 139.477L100.92 138.085C100.91 138.124 100.901 138.163 100.891 138.202C96.5549 154.97 79.4385 165.046 62.6604 160.707C57.4805 159.368 52.9379 156.812 49.2613 153.424C39.1383 167.274 21.2378 174.29 3.60867 169.732C-17.6823 164.226 -31.1374 143.764 -28.3991 122.517C-32.3953 123.093 -36.5698 122.902 -40.7235 121.828C-57.5014 117.489 -67.5881 100.379 -63.2525 83.6113C-62.3901 80.276 -61.0208 77.2056 -59.2502 74.4605C-59.4681 71.2015 -59.1777 67.8527 -58.3153 64.5176C-53.9793 47.7499 -36.8629 37.674 -20.0849 42.0124C-15.9311 43.0865 -12.1873 44.9428 -8.97119 47.3837C-1.06698 27.4729 20.62 16.0973 41.9109 21.6026Z" fill="url(#paint0_radial_3959_2702)" style=""/>
<defs>
<radialGradient id="paint0_radial_3959_2702" cx="0" cy="0" r="1" gradientUnits="userSpaceOnUse" gradientTransform="translate(92.5 109.85) rotate(172.388) scale(109.465 225.631)">
<stop stop-color="white" style="stop-color:white;stop-opacity:1;"/>
<stop offset="1" stop-color="white" stop-opacity="0" style="stop-color:none;stop-opacity:0;"/>
</radialGradient>
</defs>
</svg>
