<svg width="97" height="153" viewBox="0 0 97 153" fill="none" xmlns="http://www.w3.org/2000/svg">
<path d="M87.2238 11.06C105.35 9.3195 121.931 19.0529 129.759 34.3186C133.921 31.548 138.808 29.7344 144.134 29.223C154.4 28.2373 163.984 32.3138 170.411 39.4093L183.059 38.1948C194.919 37.0561 205.455 45.7418 206.593 57.5946C206.863 60.3993 206.581 63.1297 205.837 65.6795C207.95 68.6517 209.336 72.2006 209.71 76.0904C210.847 87.9431 202.155 98.4746 190.296 99.6134L174.994 101.083C170.035 109.272 161.401 115.098 151.134 116.083C145.808 116.595 140.666 115.744 136.053 113.816C131.272 130.293 116.847 143.003 98.7216 144.744C77.3583 146.795 58.1434 132.908 52.8732 112.809L48.0176 113.276C45.6962 114.082 43.2429 114.63 40.6878 114.875C23.4372 116.532 8.11043 103.898 6.45496 86.6577C5.38822 75.5485 10.2591 65.2373 18.4736 58.865C23.2178 54.7806 29.2285 52.0715 35.9354 51.4275C38.4902 51.1822 41.0024 51.2521 43.4346 51.6021L48.2912 51.1358C49.6406 30.4014 65.8608 13.1115 87.2238 11.06Z" fill="url(#paint0_radial_3959_2981)" style=""/>
<defs>
<radialGradient id="paint0_radial_3959_2981" cx="0" cy="0" r="1" gradientUnits="userSpaceOnUse" gradientTransform="translate(164.925 76.7057) rotate(162.423) scale(170.663 351.775)">
<stop stop-color="white" stop-opacity="0" style="stop-color:none;stop-opacity:0;"/>
<stop offset="1" stop-color="white" style="stop-color:white;stop-opacity:1;"/>
</radialGradient>
</defs>
</svg>
