<svg width="65" height="49" viewBox="0 0 65 49" fill="none" xmlns="http://www.w3.org/2000/svg">
<circle cx="4.9338" cy="42.6523" r="0.35064" transform="rotate(-90 4.9338 42.6523)" fill="white" style="fill:white;fill-opacity:1;"/>
<circle cx="31.9653" cy="40.748" r="0.35064" transform="rotate(-90 31.9653 40.748)" fill="white" style="fill:white;fill-opacity:1;"/>
<circle cx="30.5283" cy="27.8144" r="0.35064" transform="rotate(-90 30.5283 27.8144)" fill="white" style="fill:white;fill-opacity:1;"/>
<circle opacity="0.2" cx="19.1125" cy="0.431237" r="0.431109" transform="rotate(-90 19.1125 0.431237)" fill="white" style="fill:white;fill-opacity:1;"/>
<circle opacity="0.2" cx="0.431111" cy="11.9273" r="0.431109" transform="rotate(-90 0.431111 11.9273)" fill="white" style="fill:white;fill-opacity:1;"/>
<circle opacity="0.2" cx="46.4161" cy="3.30428" r="0.431109" transform="rotate(-90 46.4161 3.30428)" fill="white" style="fill:white;fill-opacity:1;"/>
<circle opacity="0.2" cx="26.2977" cy="14.8023" r="0.431109" transform="rotate(-90 26.2977 14.8023)" fill="white" style="fill:white;fill-opacity:1;"/>
<circle cx="14.514" cy="36.6444" r="0.143703" transform="rotate(-90 14.514 36.6444)" fill="white" fill-opacity="0.6" style="fill:white;fill-opacity:0.6;"/>
<circle cx="21.6992" cy="32.3339" r="0.143703" transform="rotate(-90 21.6992 32.3339)" fill="white" fill-opacity="0.6" style="fill:white;fill-opacity:0.6;"/>
<circle cx="33.1954" cy="48.1405" r="0.143703" transform="rotate(-90 33.1954 48.1405)" fill="white" fill-opacity="0.6" style="fill:white;fill-opacity:0.6;"/>
<circle cx="44.6916" cy="29.4589" r="0.143703" transform="rotate(-90 44.6916 29.4589)" fill="white" fill-opacity="0.6" style="fill:white;fill-opacity:0.6;"/>
<circle cx="64.6871" cy="21.8819" r="0.143703" transform="rotate(105 64.6871 21.8819)" fill="white" fill-opacity="0.9" style="fill:white;fill-opacity:0.9;"/>
<circle cx="42.2788" cy="27.7784" r="0.143703" transform="rotate(105 42.2788 27.7784)" fill="white" fill-opacity="0.9" style="fill:white;fill-opacity:0.9;"/>
<circle cx="10.2352" cy="13.6202" r="0.143703" transform="rotate(105 10.2352 13.6202)" fill="white" fill-opacity="0.9" style="fill:white;fill-opacity:0.9;"/>
</svg>
