<svg width="652" height="652" viewBox="0 0 652 652" fill="none" xmlns="http://www.w3.org/2000/svg">
<rect width="652" height="652" fill="#0038F5"/>
<path d="M367.59 322.699C363.049 322.699 359.45 322.276 356.801 321.429C354.161 320.477 352.52 318.943 351.886 316.826L290.955 135.426C290.11 132.887 289.688 131.195 289.688 130.348C289.688 126.116 295.448 124 306.976 124H316.18C325.596 124 331.153 126.803 332.843 132.411L370.929 254.456L374.097 264.295H375.21L378.387 254.456L417.415 132.411C419.325 126.803 424.93 124 434.24 124H442.803C454.12 124 459.783 126.116 459.783 130.348C459.783 132.252 459.466 133.945 458.832 135.426L397.901 316.826C397.267 318.943 395.57 320.477 392.824 321.429C390.175 322.276 386.633 322.699 382.189 322.699H367.59Z" fill="white"/>
<path d="M348.84 337.75C346.565 341.69 344.404 344.593 342.349 346.46C340.204 348.276 338.051 348.928 335.906 348.42L148.372 310.498C145.749 309.961 144.072 309.482 143.339 309.058C139.675 306.942 140.725 300.89 146.49 290.903L151.092 282.931C155.799 274.776 161.004 271.368 166.705 272.706L291.418 300.742L301.525 302.912L302.085 301.95L295.147 294.282L208.992 199.448C205.089 194.995 205.465 188.737 210.119 180.674L214.403 173.252C220.062 163.447 224.725 159.604 228.389 161.72C230.038 162.672 231.345 163.793 232.31 165.084L358.914 308.562C360.425 310.169 360.912 312.403 360.36 315.261C359.767 317.975 358.361 321.256 356.143 325.104L348.84 337.75Z" fill="white"/>
<path d="M353.805 363.179C356.08 367.12 357.509 370.446 358.103 373.16C358.598 375.927 358.086 378.114 356.575 379.722L229.973 523.201C228.197 525.203 226.943 526.416 226.21 526.839C222.545 528.955 217.831 525.019 212.065 515.032L207.464 507.061C202.757 498.906 202.407 492.693 206.417 488.423L293.052 394.415L299.982 386.746L299.43 385.783L289.324 387.955L164.13 415.166C158.322 416.321 153.091 412.866 148.437 404.803L144.153 397.381C138.493 387.577 137.496 381.617 141.16 379.501C142.809 378.548 144.433 377.976 146.034 377.786L333.568 339.863C335.712 339.356 337.89 340.054 340.091 341.961C342.147 343.828 344.283 346.686 346.501 350.534L353.805 363.179Z" fill="white"/>
<path d="M375.586 383.983C395.553 383.983 411.739 367.976 411.739 348.23C411.739 328.484 395.553 312.477 375.586 312.477C355.62 312.477 339.434 328.484 339.434 348.23C339.434 367.976 355.62 383.983 375.586 383.983Z" fill="#0038F5"/>
</svg>
